<svg width="494" height="98" viewBox="0 0 494 98" fill="none" xmlns="http://www.w3.org/2000/svg">
<path d="M0.648001 96V6.39999H61.192V23.296H19.336V79.104H62.088V96H0.648001ZM9.608 58.496V42.112H55.048V58.496H9.608ZM105.209 97.28C99.321 97.28 94.0303 95.7867 89.337 92.8C84.6437 89.728 80.9317 85.5893 78.201 80.384C75.5557 75.0933 74.233 68.992 74.233 62.08C74.233 55.3387 75.5557 49.3227 78.201 44.032C80.9317 38.7413 84.601 34.56 89.209 31.488C93.9023 28.416 99.2357 26.88 105.209 26.88C108.366 26.88 111.396 27.392 114.297 28.416C117.284 29.3547 119.929 30.6773 122.233 32.384C124.622 34.0907 126.542 36.0107 127.993 38.144C129.444 40.192 130.254 42.368 130.425 44.672L125.817 45.44V1.28H143.993V96H126.841L126.073 80.384L129.657 80.768C129.486 82.9013 128.718 84.9493 127.353 86.912C125.988 88.8747 124.153 90.6667 121.849 92.288C119.63 93.824 117.07 95.0613 114.169 96C111.353 96.8533 108.366 97.28 105.209 97.28ZM109.305 82.176C112.718 82.176 115.705 81.3227 118.265 79.616C120.825 77.9093 122.83 75.5627 124.281 72.576C125.732 69.5893 126.457 66.0907 126.457 62.08C126.457 58.1547 125.732 54.6987 124.281 51.712C122.83 48.64 120.825 46.2933 118.265 44.672C115.705 42.9653 112.718 42.112 109.305 42.112C105.892 42.112 102.905 42.9653 100.345 44.672C97.8703 46.2933 95.9077 48.64 94.457 51.712C93.0917 54.6987 92.409 58.1547 92.409 62.08C92.409 66.0907 93.0917 69.5893 94.457 72.576C95.9077 75.5627 97.8703 77.9093 100.345 79.616C102.905 81.3227 105.892 82.176 109.305 82.176ZM182.833 96L155.825 6.39999H166.577L183.857 65.536C184.54 67.584 185.094 69.5467 185.521 71.424C186.033 73.216 186.46 74.9653 186.801 76.672C187.142 78.2933 187.484 79.9573 187.825 81.664C188.166 83.2853 188.508 84.992 188.849 86.784L186.673 86.656C187.782 82.7307 188.678 79.616 189.361 77.312C190.129 75.008 190.854 72.96 191.537 71.168C192.22 69.376 192.988 67.328 193.841 65.024L208.945 27.008H218.289L233.521 65.408C234.545 67.7973 235.441 70.0587 236.209 72.192C236.977 74.3253 237.702 76.5013 238.385 78.72C239.153 80.9387 239.878 83.4133 240.561 86.144L238.513 86.528C238.94 84.3947 239.281 82.6453 239.537 81.28C239.793 79.9147 240.049 78.72 240.305 77.696C240.561 76.5867 240.817 75.52 241.073 74.496C241.329 73.3867 241.67 72.1067 242.097 70.656C242.524 69.12 243.078 67.2 243.761 64.896L261.041 6.39999H271.793L244.529 96H236.209L212.017 38.4L214.321 38.784L191.025 96H182.833ZM310.409 97.28C303.753 97.28 297.822 95.8293 292.617 92.928C287.497 90.0267 283.486 85.9733 280.585 80.768C277.684 75.5627 276.233 69.5893 276.233 62.848C276.233 57.6427 277.044 52.9493 278.665 48.768C280.286 44.5013 282.548 40.7893 285.449 37.632C288.436 34.4747 291.977 32.0427 296.073 30.336C300.169 28.544 304.606 27.648 309.385 27.648C313.908 27.648 318.004 28.4587 321.673 30.08C325.428 31.7013 328.628 33.9627 331.273 36.864C334.004 39.68 336.052 43.0507 337.417 46.976C338.782 50.9013 339.38 55.2107 339.209 59.904L339.081 64.384H283.401L281.993 56.32H331.785L329.481 58.496V55.424C329.31 52.352 328.414 49.408 326.793 46.592C325.172 43.6907 322.868 41.344 319.881 39.552C316.98 37.76 313.481 36.864 309.385 36.864C304.606 36.864 300.468 37.8453 296.969 39.808C293.47 41.6853 290.782 44.5013 288.905 48.256C287.028 52.0107 286.089 56.6613 286.089 62.208C286.089 67.4987 287.113 72.1067 289.161 76.032C291.209 79.872 294.11 82.8587 297.865 84.992C301.705 87.1253 306.313 88.192 311.689 88.192C314.846 88.192 317.961 87.68 321.033 86.656C324.19 85.5467 327.646 83.4133 331.401 80.256L336.393 87.168C334.43 89.1307 332.084 90.88 329.353 92.416C326.622 93.8667 323.636 95.0613 320.393 96C317.15 96.8533 313.822 97.28 310.409 97.28ZM355.404 96V29.184H365.004V96H355.404ZM360.14 14.72C357.751 14.72 355.916 14.1227 354.636 12.928C353.441 11.648 352.844 9.94133 352.844 7.808C352.844 5.67466 353.484 3.96799 354.764 2.688C356.044 1.408 357.836 0.767998 360.14 0.767998C362.444 0.767998 364.236 1.408 365.516 2.688C366.796 3.88266 367.436 5.58933 367.436 7.808C367.436 9.856 366.796 11.52 365.516 12.8C364.236 14.08 362.444 14.72 360.14 14.72ZM407.857 97.28C402.14 97.28 397.02 96.2133 392.497 94.08C387.974 91.9467 384.39 89.1307 381.745 85.632L388.529 79.744C391.004 82.7307 393.905 84.992 397.233 86.528C400.646 88.064 404.444 88.832 408.625 88.832C410.758 88.832 412.678 88.6187 414.385 88.192C416.092 87.68 417.585 86.9547 418.865 86.016C420.145 85.0773 421.126 83.968 421.809 82.688C422.492 81.408 422.833 80 422.833 78.464C422.833 75.648 421.596 73.3013 419.121 71.424C418.012 70.656 416.433 69.888 414.385 69.12C412.337 68.2667 409.862 67.456 406.961 66.688C402.182 65.3227 398.214 63.9573 395.057 62.592C391.9 61.1413 389.425 59.4773 387.633 57.6C386.353 56.064 385.372 54.4 384.689 52.608C384.092 50.816 383.793 48.8533 383.793 46.72C383.793 43.9893 384.348 41.472 385.457 39.168C386.652 36.864 388.273 34.8587 390.321 33.152C392.454 31.36 394.929 30.0373 397.745 29.184C400.646 28.2453 403.761 27.776 407.089 27.776C410.246 27.776 413.361 28.2027 416.433 29.056C419.505 29.9093 422.364 31.1467 425.009 32.768C427.654 34.3893 429.916 36.3093 431.793 38.528L425.905 44.928C424.284 43.2213 422.492 41.6853 420.529 40.32C418.566 38.9547 416.476 37.888 414.257 37.12C412.124 36.352 409.905 35.968 407.601 35.968C405.553 35.968 403.633 36.224 401.841 36.736C400.134 37.248 398.641 37.9733 397.361 38.912C396.166 39.7653 395.228 40.832 394.545 42.112C393.948 43.392 393.649 44.8 393.649 46.336C393.649 47.616 393.905 48.768 394.417 49.792C394.929 50.816 395.654 51.712 396.593 52.48C397.788 53.4187 399.452 54.3147 401.585 55.168C403.804 55.936 406.534 56.7467 409.777 57.6C413.532 58.624 416.689 59.6907 419.249 60.8C421.894 61.824 424.07 63.0613 425.777 64.512C428.081 66.2187 429.702 68.1813 430.641 70.4C431.665 72.6187 432.177 75.136 432.177 77.952C432.177 81.7067 431.11 85.0347 428.977 87.936C426.929 90.8373 424.07 93.1413 420.401 94.848C416.732 96.4693 412.55 97.28 407.857 97.28ZM469.107 97.28C463.39 97.28 458.27 96.2133 453.747 94.08C449.224 91.9467 445.64 89.1307 442.995 85.632L449.779 79.744C452.254 82.7307 455.155 84.992 458.483 86.528C461.896 88.064 465.694 88.832 469.875 88.832C472.008 88.832 473.928 88.6187 475.635 88.192C477.342 87.68 478.835 86.9547 480.115 86.016C481.395 85.0773 482.376 83.968 483.059 82.688C483.742 81.408 484.083 80 484.083 78.464C484.083 75.648 482.846 73.3013 480.371 71.424C479.262 70.656 477.683 69.888 475.635 69.12C473.587 68.2667 471.112 67.456 468.211 66.688C463.432 65.3227 459.464 63.9573 456.307 62.592C453.15 61.1413 450.675 59.4773 448.883 57.6C447.603 56.064 446.622 54.4 445.939 52.608C445.342 50.816 445.043 48.8533 445.043 46.72C445.043 43.9893 445.598 41.472 446.707 39.168C447.902 36.864 449.523 34.8587 451.571 33.152C453.704 31.36 456.179 30.0373 458.995 29.184C461.896 28.2453 465.011 27.776 468.339 27.776C471.496 27.776 474.611 28.2027 477.683 29.056C480.755 29.9093 483.614 31.1467 486.259 32.768C488.904 34.3893 491.166 36.3093 493.043 38.528L487.155 44.928C485.534 43.2213 483.742 41.6853 481.779 40.32C479.816 38.9547 477.726 37.888 475.507 37.12C473.374 36.352 471.155 35.968 468.851 35.968C466.803 35.968 464.883 36.224 463.091 36.736C461.384 37.248 459.891 37.9733 458.611 38.912C457.416 39.7653 456.478 40.832 455.795 42.112C455.198 43.392 454.899 44.8 454.899 46.336C454.899 47.616 455.155 48.768 455.667 49.792C456.179 50.816 456.904 51.712 457.843 52.48C459.038 53.4187 460.702 54.3147 462.835 55.168C465.054 55.936 467.784 56.7467 471.027 57.6C474.782 58.624 477.939 59.6907 480.499 60.8C483.144 61.824 485.32 63.0613 487.027 64.512C489.331 66.2187 490.952 68.1813 491.891 70.4C492.915 72.6187 493.427 75.136 493.427 77.952C493.427 81.7067 492.36 85.0347 490.227 87.936C488.179 90.8373 485.32 93.1413 481.651 94.848C477.982 96.4693 473.8 97.28 469.107 97.28Z" fill="currentColor"/>
</svg>
