<svg width="186" height="37" viewBox="0 0 186 37" fill="none" xmlns="http://www.w3.org/2000/svg">
	<path d="M0.368 36V2.4H23.072V8.736H7.376V29.664H23.408V36H0.368ZM3.728 21.936V15.792H20.768V21.936H3.728ZM39.5784 36.48C37.3704 36.48 35.3864 35.92 33.6264 34.8C31.8664 33.648 30.4744 32.096 29.4504 30.144C28.4584 28.16 27.9624 25.872 27.9624 23.28C27.9624 20.752 28.4584 18.496 29.4504 16.512C30.4744 14.528 31.8504 12.96 33.5784 11.808C35.3384 10.656 37.3384 10.08 39.5784 10.08C40.7624 10.08 41.8984 10.272 42.9864 10.656C44.1064 11.008 45.0984 11.504 45.9624 12.144C46.8584 12.784 47.5784 13.504 48.1224 14.304C48.6664 15.072 48.9704 15.888 49.0344 16.752L47.3064 17.04V0.48H54.1224V36H47.6904L47.4024 30.144L48.7464 30.288C48.6824 31.088 48.3944 31.856 47.8824 32.592C47.3704 33.328 46.6824 34 45.8184 34.608C44.9864 35.184 44.0264 35.648 42.9384 36C41.8824 36.32 40.7624 36.48 39.5784 36.48ZM41.1144 30.816C42.3944 30.816 43.5144 30.496 44.4744 29.856C45.4344 29.216 46.1864 28.336 46.7304 27.216C47.2744 26.096 47.5464 24.784 47.5464 23.28C47.5464 21.808 47.2744 20.512 46.7304 19.392C46.1864 18.24 45.4344 17.36 44.4744 16.752C43.5144 16.112 42.3944 15.792 41.1144 15.792C39.8344 15.792 38.7144 16.112 37.7544 16.752C36.8264 17.36 36.0904 18.24 35.5464 19.392C35.0344 20.512 34.7784 21.808 34.7784 23.28C34.7784 24.784 35.0344 26.096 35.5464 27.216C36.0904 28.336 36.8264 29.216 37.7544 29.856C38.7144 30.496 39.8344 30.816 41.1144 30.816ZM68.6874 36L58.5594 2.4H62.5914L69.0714 24.576C69.3274 25.344 69.5354 26.08 69.6954 26.784C69.8874 27.456 70.0474 28.112 70.1754 28.752C70.3034 29.36 70.4314 29.984 70.5594 30.624C70.6874 31.232 70.8154 31.872 70.9434 32.544L70.1274 32.496C70.5434 31.024 70.8794 29.856 71.1354 28.992C71.4234 28.128 71.6954 27.36 71.9514 26.688C72.2074 26.016 72.4954 25.248 72.8154 24.384L78.4794 10.128H81.9834L87.6954 24.528C88.0794 25.424 88.4154 26.272 88.7034 27.072C88.9914 27.872 89.2634 28.688 89.5194 29.52C89.8074 30.352 90.0794 31.28 90.3354 32.304L89.5674 32.448C89.7274 31.648 89.8554 30.992 89.9514 30.48C90.0474 29.968 90.1434 29.52 90.2394 29.136C90.3354 28.72 90.4314 28.32 90.5274 27.936C90.6234 27.52 90.7514 27.04 90.9114 26.496C91.0714 25.92 91.2794 25.2 91.5354 24.336L98.0154 2.4H102.047L91.8234 36H88.7034L79.6314 14.4L80.4954 14.544L71.7594 36H68.6874ZM116.528 36.48C114.032 36.48 111.808 35.936 109.856 34.848C107.936 33.76 106.432 32.24 105.344 30.288C104.256 28.336 103.712 26.096 103.712 23.568C103.712 21.616 104.016 19.856 104.624 18.288C105.232 16.688 106.08 15.296 107.168 14.112C108.288 12.928 109.616 12.016 111.152 11.376C112.688 10.704 114.352 10.368 116.144 10.368C117.84 10.368 119.376 10.672 120.752 11.28C122.16 11.888 123.36 12.736 124.352 13.824C125.376 14.88 126.144 16.144 126.656 17.616C127.168 19.088 127.392 20.704 127.328 22.464L127.28 24.144H106.4L105.872 21.12H124.544L123.68 21.936V20.784C123.616 19.632 123.28 18.528 122.672 17.472C122.064 16.384 121.2 15.504 120.08 14.832C118.992 14.16 117.68 13.824 116.144 13.824C114.352 13.824 112.8 14.192 111.488 14.928C110.176 15.632 109.168 16.688 108.464 18.096C107.76 19.504 107.408 21.248 107.408 23.328C107.408 25.312 107.792 27.04 108.56 28.512C109.328 29.952 110.416 31.072 111.824 31.872C113.264 32.672 114.992 33.072 117.008 33.072C118.192 33.072 119.36 32.88 120.512 32.496C121.696 32.08 122.992 31.28 124.4 30.096L126.272 32.688C125.536 33.424 124.656 34.08 123.632 34.656C122.608 35.2 121.488 35.648 120.272 36C119.056 36.32 117.808 36.48 116.528 36.48ZM133.402 36V10.944H137.002V36H133.402ZM135.178 5.52C134.282 5.52 133.594 5.296 133.114 4.848C132.666 4.368 132.442 3.728 132.442 2.928C132.442 2.128 132.682 1.488 133.162 1.008C133.642 0.527999 134.314 0.287999 135.178 0.287999C136.042 0.287999 136.714 0.527999 137.194 1.008C137.674 1.456 137.914 2.096 137.914 2.928C137.914 3.696 137.674 4.32 137.194 4.8C136.714 5.28 136.042 5.52 135.178 5.52ZM153.071 36.48C150.927 36.48 149.007 36.08 147.311 35.28C145.615 34.48 144.271 33.424 143.279 32.112L145.823 29.904C146.751 31.024 147.839 31.872 149.087 32.448C150.367 33.024 151.791 33.312 153.359 33.312C154.159 33.312 154.879 33.232 155.519 33.072C156.159 32.88 156.719 32.608 157.199 32.256C157.679 31.904 158.047 31.488 158.303 31.008C158.559 30.528 158.687 30 158.687 29.424C158.687 28.368 158.223 27.488 157.295 26.784C156.879 26.496 156.287 26.208 155.519 25.92C154.751 25.6 153.823 25.296 152.735 25.008C150.943 24.496 149.455 23.984 148.271 23.472C147.087 22.928 146.159 22.304 145.487 21.6C145.007 21.024 144.639 20.4 144.383 19.728C144.159 19.056 144.047 18.32 144.047 17.52C144.047 16.496 144.255 15.552 144.671 14.688C145.119 13.824 145.727 13.072 146.495 12.432C147.295 11.76 148.223 11.264 149.279 10.944C150.367 10.592 151.535 10.416 152.783 10.416C153.967 10.416 155.135 10.576 156.287 10.896C157.439 11.216 158.511 11.68 159.503 12.288C160.495 12.896 161.343 13.616 162.047 14.448L159.839 16.848C159.231 16.208 158.559 15.632 157.823 15.12C157.087 14.608 156.303 14.208 155.471 13.92C154.671 13.632 153.839 13.488 152.975 13.488C152.207 13.488 151.487 13.584 150.815 13.776C150.175 13.968 149.615 14.24 149.135 14.592C148.687 14.912 148.335 15.312 148.079 15.792C147.855 16.272 147.743 16.8 147.743 17.376C147.743 17.856 147.839 18.288 148.031 18.672C148.223 19.056 148.495 19.392 148.847 19.68C149.295 20.032 149.919 20.368 150.719 20.688C151.551 20.976 152.575 21.28 153.791 21.6C155.199 21.984 156.383 22.384 157.343 22.8C158.335 23.184 159.151 23.648 159.791 24.192C160.655 24.832 161.263 25.568 161.615 26.4C161.999 27.232 162.191 28.176 162.191 29.232C162.191 30.64 161.791 31.888 160.991 32.976C160.223 34.064 159.151 34.928 157.775 35.568C156.399 36.176 154.831 36.48 153.071 36.48ZM176.04 36.48C173.896 36.48 171.976 36.08 170.28 35.28C168.584 34.48 167.24 33.424 166.248 32.112L168.792 29.904C169.72 31.024 170.808 31.872 172.056 32.448C173.336 33.024 174.76 33.312 176.328 33.312C177.128 33.312 177.848 33.232 178.488 33.072C179.128 32.88 179.688 32.608 180.168 32.256C180.648 31.904 181.016 31.488 181.272 31.008C181.528 30.528 181.656 30 181.656 29.424C181.656 28.368 181.192 27.488 180.264 26.784C179.848 26.496 179.256 26.208 178.488 25.92C177.72 25.6 176.792 25.296 175.704 25.008C173.912 24.496 172.424 23.984 171.24 23.472C170.056 22.928 169.128 22.304 168.456 21.6C167.976 21.024 167.608 20.4 167.352 19.728C167.128 19.056 167.016 18.32 167.016 17.52C167.016 16.496 167.224 15.552 167.64 14.688C168.088 13.824 168.696 13.072 169.464 12.432C170.264 11.76 171.192 11.264 172.248 10.944C173.336 10.592 174.504 10.416 175.752 10.416C176.936 10.416 178.104 10.576 179.256 10.896C180.408 11.216 181.48 11.68 182.472 12.288C183.464 12.896 184.312 13.616 185.016 14.448L182.808 16.848C182.2 16.208 181.528 15.632 180.792 15.12C180.056 14.608 179.272 14.208 178.44 13.92C177.64 13.632 176.808 13.488 175.944 13.488C175.176 13.488 174.456 13.584 173.784 13.776C173.144 13.968 172.584 14.24 172.104 14.592C171.656 14.912 171.304 15.312 171.048 15.792C170.824 16.272 170.712 16.8 170.712 17.376C170.712 17.856 170.808 18.288 171 18.672C171.192 19.056 171.464 19.392 171.816 19.68C172.264 20.032 172.888 20.368 173.688 20.688C174.52 20.976 175.544 21.28 176.76 21.6C178.168 21.984 179.352 22.384 180.312 22.8C181.304 23.184 182.12 23.648 182.76 24.192C183.624 24.832 184.232 25.568 184.584 26.4C184.968 27.232 185.16 28.176 185.16 29.232C185.16 30.64 184.76 31.888 183.96 32.976C183.192 34.064 182.12 34.928 180.744 35.568C179.368 36.176 177.8 36.48 176.04 36.48Z" fill="currentColor"/>
</svg>
